<svg width="25" height="24" viewBox="0 0 25 24" fill="none" xmlns="http://www.w3.org/2000/svg">
<path fill-rule="evenodd" clip-rule="evenodd" d="M12.5 22C18.0228 22 22.5 17.5228 22.5 12C22.5 6.47715 18.0228 2 12.5 2C6.97715 2 2.5 6.47715 2.5 12C2.5 17.5228 6.97715 22 12.5 22ZM13.25 7C13.25 6.58579 12.9142 6.25 12.5 6.25C12.0858 6.25 11.75 6.58579 11.75 7V12C11.75 12.3228 11.9566 12.6094 12.2628 12.7115L15.2628 13.7115C15.6558 13.8425 16.0805 13.6301 16.2115 13.2372C16.3425 12.8442 16.1301 12.4195 15.7372 12.2885L13.25 11.4594V7Z" fill="#826F66"/>
</svg>
