<svg width="38" height="38" viewBox="0 0 38 38" fill="none" xmlns="http://www.w3.org/2000/svg">
<path d="M19 0.666748C9.06146 0.666748 0.666626 9.06158 0.666626 19.0001C0.666626 28.9386 9.06146 37.3334 19 37.3334C28.9385 37.3334 37.3333 28.9386 37.3333 19.0001C37.3333 9.06158 28.9385 0.666748 19 0.666748ZM19 9.83342C22.1661 9.83342 24.5 12.1654 24.5 15.3334C24.5 18.5014 22.1661 20.8334 19 20.8334C15.8356 20.8334 13.5 18.5014 13.5 15.3334C13.5 12.1654 15.8356 9.83342 19 9.83342ZM9.63896 27.7487C11.2835 25.3287 14.0261 23.7154 17.1666 23.7154H20.8333C23.9756 23.7154 26.7165 25.3287 28.361 27.7487C26.018 30.2567 22.6941 31.8334 19 31.8334C15.3058 31.8334 11.982 30.2567 9.63896 27.7487Z" fill="#AD8B73"/>
</svg>
