<svg width="25" height="24" viewBox="0 0 25 24" fill="none" xmlns="http://www.w3.org/2000/svg">
<path d="M18.5 11H6.5V6H18.5M17 17C16.6022 17 16.2206 16.842 15.9393 16.5607C15.658 16.2794 15.5 15.8978 15.5 15.5C15.5 15.1022 15.658 14.7206 15.9393 14.4393C16.2206 14.158 16.6022 14 17 14C17.3978 14 17.7794 14.158 18.0607 14.4393C18.342 14.7206 18.5 15.1022 18.5 15.5C18.5 15.8978 18.342 16.2794 18.0607 16.5607C17.7794 16.842 17.3978 17 17 17M8 17C7.60218 17 7.22064 16.842 6.93934 16.5607C6.65804 16.2794 6.5 15.8978 6.5 15.5C6.5 15.1022 6.65804 14.7206 6.93934 14.4393C7.22064 14.158 7.60218 14 8 14C8.39782 14 8.77936 14.158 9.06066 14.4393C9.34196 14.7206 9.5 15.1022 9.5 15.5C9.5 15.8978 9.34196 16.2794 9.06066 16.5607C8.77936 16.842 8.39782 17 8 17M4.5 16C4.5 16.88 4.89 17.67 5.5 18.22V20C5.5 20.2652 5.60536 20.5196 5.79289 20.7071C5.98043 20.8946 6.23478 21 6.5 21H7.5C7.76522 21 8.01957 20.8946 8.20711 20.7071C8.39464 20.5196 8.5 20.2652 8.5 20V19H16.5V20C16.5 20.2652 16.6054 20.5196 16.7929 20.7071C16.9804 20.8946 17.2348 21 17.5 21H18.5C18.7652 21 19.0196 20.8946 19.2071 20.7071C19.3946 20.5196 19.5 20.2652 19.5 20V18.22C20.11 17.67 20.5 16.88 20.5 16V6C20.5 2.5 16.92 2 12.5 2C8.08 2 4.5 2.5 4.5 6V16Z" fill="#826F66"/>
</svg>
