<svg width="24" height="25" viewBox="0 0 24 25" fill="none" xmlns="http://www.w3.org/2000/svg">
<path d="M16.459 3.44572L16 3.90235L15.541 3.44572C14.2734 2.18476 12.2183 2.18476 10.9507 3.44571C9.68311 4.70667 9.68311 6.75108 10.9507 8.01203L15.0819 12.1217C15.589 12.6261 16.411 12.6261 16.9181 12.1217L21.0493 8.01203C22.3169 6.75108 22.3169 4.70667 21.0493 3.44572C19.7817 2.18476 17.7266 2.18476 16.459 3.44572Z" fill="#FFFBE9"/>
<path opacity="0.4" d="M4 10.5H2V19.5L6.31083 21.6554C7.42168 22.2108 8.64658 22.5 9.88854 22.5H18C19.1046 22.5 20 21.6046 20 20.5C20 19.3954 19.1046 18.5 18 18.5H16.4164C15.4849 18.5 14.5663 18.2831 13.7331 17.8666L11.0191 16.146C11.1111 16.0245 11.19 15.8899 11.2528 15.7434C11.6664 14.7784 11.2241 13.6605 10.2622 13.2397L4 10.5Z" fill="#FFFBE9"/>
</svg>
