<svg width="20" height="22" viewBox="0 0 20 22" fill="none" xmlns="http://www.w3.org/2000/svg">
<path d="M19.8227 9.16155C19.9417 9.84627 20.001 10.54 20 11.235C20 14.3388 18.8906 16.9631 16.9599 18.7395H16.9625C15.2742 20.299 12.9533 21.2018 10.2015 21.2018C7.49587 21.2018 4.90109 20.127 2.98794 18.2139C1.0748 16.3007 0 13.706 0 11.0004C0 8.29477 1.0748 5.69998 2.98794 3.78683C4.90109 1.87369 7.49587 0.798891 10.2015 0.798891C12.7339 0.769232 15.1796 1.72064 17.0263 3.45382L14.1137 6.36634C13.0609 5.36274 11.6558 4.81316 10.2015 4.83612C7.54016 4.83612 5.27926 6.63158 4.47335 9.04933C4.04604 10.3162 4.04604 11.6883 4.47335 12.9552H4.47717C5.28691 15.3691 7.54399 17.1646 10.2053 17.1646C11.5799 17.1646 12.7608 16.8127 13.6764 16.1904H13.6725C14.2042 15.8382 14.6589 15.3819 15.0094 14.8491C15.3598 14.3163 15.5987 13.718 15.7115 13.0904H10.2015V9.16282L19.8227 9.16155Z" fill="#826F66"/>
</svg>
