<svg width="32" height="32" viewBox="0 0 32 32" fill="none" xmlns="http://www.w3.org/2000/svg">
<path fill-rule="evenodd" clip-rule="evenodd" d="M16.0005 2.66663C8.63663 2.66663 2.66669 8.63555 2.66669 15.9994C2.66669 23.3633 8.63663 29.3333 16.0005 29.3333C23.3638 29.3333 29.3338 23.3633 29.3338 15.9994C29.3339 8.63555 23.3638 2.66663 16.0005 2.66663ZM16.0499 23.7416C15.2192 23.7416 14.4171 23.6278 13.66 23.417L10.823 24.9837V22.0238C8.92952 20.6009 7.71786 18.4218 7.71786 15.9788C7.71786 11.6916 11.4483 8.21612 16.0499 8.21612C20.6515 8.21612 24.382 11.6916 24.382 15.9788C24.382 20.2662 20.6516 23.7416 16.0499 23.7416ZM10.616 18.6699L15.1702 13.8053L17.3438 16.0824L21.4322 13.8053L16.878 18.6699L14.7561 16.3929L10.616 18.6699Z" fill="#3A3845"/>
</svg>
