<svg width="32" height="32" viewBox="0 0 32 32" fill="none" xmlns="http://www.w3.org/2000/svg">
<path fill-rule="evenodd" clip-rule="evenodd" d="M16.3336 3C8.96948 3 2.99969 8.97087 2.99969 16.3339C2.99969 23.698 8.96948 29.6667 16.3336 29.6667C23.6977 29.6667 29.6664 23.698 29.6664 16.3339C29.6664 8.97087 23.6971 3 16.3336 3ZM24.3238 15.4162C24.3238 12.0622 20.9614 9.33334 16.8282 9.33334C12.6955 9.33334 9.3327 12.0622 9.3327 15.4162C9.3327 18.4232 11.9993 20.9415 15.6014 21.4176C15.8455 21.4702 16.1778 21.5783 16.2617 21.7871C16.3373 21.9767 16.3111 22.2735 16.2859 22.4648C16.2859 22.4648 16.198 22.9937 16.179 23.1066C16.1462 23.296 16.0284 23.8477 16.8282 23.5106C17.6283 23.1735 21.145 20.9689 22.7177 19.1588H22.7173C23.8035 17.9675 24.3238 16.7587 24.3238 15.4162ZM15.3047 13.7954H14.7788C14.6984 13.7954 14.6328 13.8608 14.6328 13.9413V17.2073C14.6328 17.2877 14.6984 17.3529 14.7788 17.3529H15.3047C15.3853 17.3529 15.4507 17.2877 15.4507 17.2073V13.9413C15.4507 13.8608 15.3853 13.7954 15.3047 13.7954ZM18.3982 13.7954H18.9239C19.0045 13.7954 19.0699 13.8608 19.0699 13.9413V17.2073C19.0699 17.2877 19.0045 17.3529 18.9239 17.3529H18.3982C18.385 17.3529 18.3725 17.3512 18.3608 17.348L18.3597 17.3478L18.3586 17.3476L18.3486 17.3443L18.3444 17.3426L18.3371 17.3397C18.3347 17.3387 18.3325 17.3375 18.3303 17.3363L18.3293 17.3357L18.3262 17.3339C18.3231 17.3323 18.32 17.3305 18.3171 17.3286L18.3155 17.3274C18.3016 17.3179 18.2889 17.3059 18.2785 17.2913L16.7799 15.2676V17.2073C16.7799 17.2877 16.7145 17.3529 16.6339 17.3529H16.1081C16.0276 17.3529 15.9621 17.2877 15.9621 17.2073V13.9413C15.9621 13.8608 16.0276 13.7954 16.1081 13.7954H16.6339L16.639 13.7956L16.6466 13.7961L16.6492 13.7964C16.6509 13.7966 16.6526 13.7968 16.6543 13.7972L16.6603 13.798C16.6632 13.7985 16.666 13.7991 16.6687 13.7997L16.6739 13.8011C16.6768 13.802 16.6797 13.8028 16.6824 13.804L16.6872 13.8057C16.6895 13.8064 16.6917 13.8074 16.6938 13.8083H16.6938L16.6957 13.8092L16.7003 13.8114L16.708 13.8159L16.7093 13.8166C16.7104 13.8171 16.7115 13.8177 16.7125 13.8184L16.72 13.8236L16.7205 13.8239C16.7217 13.8248 16.7227 13.8256 16.7238 13.8267C16.7256 13.8279 16.7273 13.8294 16.729 13.8308L16.7317 13.833L16.7343 13.8356C16.7372 13.8383 16.7403 13.8414 16.7432 13.8445L16.744 13.8455C16.748 13.8502 16.7519 13.8552 16.7554 13.8603L18.2522 15.8816V13.9413C18.2522 13.8608 18.3174 13.7954 18.3982 13.7954ZM21.9732 14.4673C21.9732 14.5479 21.908 14.6133 21.8273 14.6133H20.3989V15.1652H21.8273C21.908 15.1652 21.9732 15.2307 21.9732 15.3114V15.837C21.9732 15.9178 21.908 15.983 21.8273 15.983H20.3989V16.5351H21.8273C21.908 16.5351 21.9732 16.6007 21.9732 16.6813V17.2069C21.9732 17.2876 21.908 17.3531 21.8273 17.3531H19.7267C19.6875 17.3531 19.6521 17.3373 19.626 17.3121C19.6252 17.3118 19.6243 17.3109 19.6238 17.3104C19.6231 17.3097 19.6223 17.3089 19.6219 17.308C19.5965 17.2819 19.5809 17.2464 19.5809 17.2073V17.2069V13.9415V13.9413C19.5809 13.9022 19.5965 13.8668 19.6216 13.8408C19.6221 13.8399 19.6229 13.839 19.6238 13.8382L19.6245 13.8376L19.6255 13.8366C19.6518 13.8113 19.6873 13.7955 19.7267 13.7955H19.7271H21.8273C21.908 13.7955 21.9732 13.8608 21.9732 13.9415V14.4673ZM12.6091 16.5351H14.0376C14.1183 16.5351 14.1835 16.6007 14.1835 16.6813V17.207C14.1835 17.2876 14.1183 17.3531 14.0376 17.3531H11.9371C11.8979 17.3531 11.8626 17.3375 11.8362 17.3123C11.8357 17.3116 11.8351 17.3111 11.8345 17.3107C11.8344 17.3106 11.8342 17.3105 11.8341 17.3104C11.8335 17.3098 11.833 17.3091 11.8326 17.3086C11.8325 17.3084 11.8324 17.3082 11.8322 17.308C11.807 17.2819 11.7912 17.2464 11.7912 17.2073V17.207V13.9413C11.7912 13.8607 11.8568 13.7955 11.9372 13.7955H12.4631C12.5437 13.7955 12.6091 13.8607 12.6091 13.9413V16.5351Z" fill="#3A3845"/>
</svg>
