<svg width="32" height="32" viewBox="0 0 32 32" fill="none" xmlns="http://www.w3.org/2000/svg">
<path fill-rule="evenodd" clip-rule="evenodd" d="M16.0006 2.66663C8.63647 2.66663 2.66669 8.63749 2.66669 16.0005C2.66669 23.3646 8.63647 29.3333 16.0006 29.3333C23.3647 29.3333 29.3344 23.3646 29.3344 16.0005C29.3344 8.63749 23.3641 2.66663 16.0006 2.66663ZM19.5294 15.9447H17.2205C17.2205 19.6344 17.2205 24.179 17.2205 24.179H13.7984C13.7984 24.179 13.7984 19.6809 13.7984 15.9447H12.1707V13.0375H13.7984V11.1537C13.7984 9.80546 14.4384 7.70074 17.2525 7.70074L19.7866 7.71048V10.5343C19.7866 10.5343 18.2455 10.5343 17.9466 10.5343C17.6461 10.5343 17.2211 10.6843 17.2211 11.3254V13.0381H19.8299L19.5294 15.9447Z" fill="#3A3845"/>
</svg>
