<svg width="25" height="24" viewBox="0 0 25 24" fill="none" xmlns="http://www.w3.org/2000/svg">
<path fill-rule="evenodd" clip-rule="evenodd" d="M22.5 12C22.5 17.5228 18.0228 22 12.5 22C6.97715 22 2.5 17.5228 2.5 12C2.5 6.47715 6.97715 2 12.5 2C18.0228 2 22.5 6.47715 22.5 12ZM13.5 7C13.5 7.55228 13.0523 8 12.5 8C11.9477 8 11.5 7.55228 11.5 7C11.5 6.44772 11.9477 6 12.5 6C13.0523 6 13.5 6.44772 13.5 7ZM11.5 9.25C11.0858 9.25 10.75 9.58579 10.75 10C10.75 10.4142 11.0858 10.75 11.5 10.75H11.75V17C11.75 17.4142 12.0858 17.75 12.5 17.75C12.9142 17.75 13.25 17.4142 13.25 17V10C13.25 9.58579 12.9142 9.25 12.5 9.25H11.5Z" fill="#826F66"/>
</svg>
