<svg width="32" height="32" viewBox="0 0 32 32" fill="none" xmlns="http://www.w3.org/2000/svg">
<path fill-rule="evenodd" clip-rule="evenodd" d="M2.66669 16C2.66669 8.62869 8.62875 2.66663 16 2.66663C23.3713 2.66663 29.3876 8.62869 29.3334 16C29.3334 23.3712 23.3713 29.3333 16 29.3333C8.62875 29.3333 2.66669 23.3712 2.66669 16ZM21.9079 22.233C22.6667 21.4742 23.1003 20.3902 23.1003 19.1436V13.1815C23.1003 11.9349 22.7209 10.9051 21.9621 10.1463C21.2033 9.38749 20.1735 8.95389 18.9268 8.95389H12.9648C10.4174 8.95389 8.73715 10.6883 8.73715 13.1815V19.1436C8.73715 20.3902 9.11655 21.4742 9.92956 22.233C10.6884 22.9918 11.7724 23.3712 12.9648 23.3712H18.8726C20.0651 23.3712 21.1491 22.9918 21.9079 22.233ZM19.7399 13.1273C19.2521 13.1273 18.8727 12.7479 18.8727 12.2601C18.8727 11.7723 19.2521 11.3929 19.7399 11.3929C20.2277 11.3929 20.6071 11.7723 20.6071 12.2601C20.6071 12.7479 20.2277 13.1273 19.7399 13.1273ZM15.8916 12.4227C17.897 12.4227 19.6315 14.0487 19.6315 16.1084C19.6315 18.168 17.9512 19.794 15.8916 19.794C13.832 19.794 12.206 18.1138 12.206 16.1084C12.206 14.0487 13.8862 12.4227 15.8916 12.4227ZM15.8916 13.7561C14.6008 13.7561 13.5393 14.8068 13.5393 16.1084C13.5393 17.3992 14.59 18.4607 15.8916 18.4607C17.2313 18.4607 18.2981 17.4152 18.2981 16.1084C18.2981 14.8227 17.1988 13.7561 15.8916 13.7561Z" fill="#3A3845"/>
</svg>
