<svg width="24" height="25" viewBox="0 0 24 25" fill="none" xmlns="http://www.w3.org/2000/svg">
<circle opacity="0.4" cx="12" cy="12.5" r="10" fill="#FFFBE9"/>
<path d="M17 10.5C17 11.0523 16.5523 11.5 16 11.5C15.4477 11.5 15 11.0523 15 10.5C15 9.94772 15.4477 9.5 16 9.5C16.5523 9.5 17 9.94772 17 10.5Z" fill="#FFFBE9"/>
<path d="M9 10.5C9 11.0523 8.55228 11.5 8 11.5C7.44772 11.5 7 11.0523 7 10.5C7 9.94772 7.44772 9.5 8 9.5C8.55228 9.5 9 9.94772 9 10.5Z" fill="#FFFBE9"/>
<path fill-rule="evenodd" clip-rule="evenodd" d="M9.49455 14.9362C9.1849 14.6645 8.71354 14.6934 8.43945 15.0017C8.16426 15.3113 8.19215 15.7854 8.50174 16.0606L9.00001 15.5C8.50174 16.0606 8.5015 16.0604 8.50174 16.0606L8.5027 16.0614L8.50376 16.0624L8.50622 16.0645L8.51243 16.0699L8.53 16.0849C8.54398 16.0967 8.56252 16.112 8.58552 16.1303C8.6315 16.1668 8.6955 16.2154 8.77679 16.2719C8.93912 16.3849 9.17203 16.5306 9.46968 16.6749C10.065 16.9635 10.9268 17.25 12 17.25C13.0733 17.25 13.935 16.9635 14.5303 16.6749C14.828 16.5306 15.0609 16.3849 15.2232 16.2719C15.3045 16.2154 15.3685 16.1668 15.4145 16.1303C15.4375 16.112 15.456 16.0967 15.47 16.0849L15.4876 16.0699L15.4938 16.0645L15.4963 16.0624L15.4973 16.0614C15.4976 16.0612 15.4983 16.0606 15 15.5L15.4983 16.0606C15.8079 15.7854 15.8358 15.3113 15.5606 15.0017C15.2865 14.6934 14.8151 14.6645 14.5055 14.9362L14.5046 14.9369C14.5012 14.9398 14.4929 14.9466 14.4815 14.9557C14.4587 14.9739 14.4201 15.0034 14.3666 15.0406C14.2594 15.1152 14.0939 15.2195 13.8759 15.3251C13.44 15.5365 12.8018 15.75 12 15.75C11.1983 15.75 10.56 15.5365 10.1241 15.3251C9.90611 15.2195 9.74058 15.1152 9.63338 15.0406C9.57991 15.0034 9.54136 14.9739 9.5185 14.9557C9.50708 14.9466 9.49961 14.9404 9.4962 14.9376C9.49547 14.9369 9.49491 14.9365 9.49455 14.9362C9.49455 14.9362 9.49456 14.9362 9.49455 14.9362ZM14.5055 14.9362L14.5046 14.9369L14.5034 14.938L14.5026 14.9387C14.5037 14.9377 14.5044 14.9371 14.5055 14.9362Z" fill="#FFFBE9"/>
</svg>
