<svg width="118" height="59" viewBox="0 0 118 59" fill="none" xmlns="http://www.w3.org/2000/svg">
<path d="M10.5 0H5L23 37H28.5L10.5 0Z" fill="#3A3845"/>
<path d="M68.5 0H63L81 37H86.5L68.5 0Z" fill="#3A3845"/>
<circle cx="48" cy="19" r="3" fill="#3A3845"/>
<circle cx="106" cy="19" r="3" fill="#3A3845"/>
<path fill-rule="evenodd" clip-rule="evenodd" d="M37 0H59V2L41 2L41 35H59V37H37V35V2V0Z" fill="#3A3845"/>
<path fill-rule="evenodd" clip-rule="evenodd" d="M95 0H117V2L99 2L99 35H117V37H95V35V2V0Z" fill="#3A3845"/>
<path d="M6.24219 55.2422C4.67448 55.2422 3.40104 54.7266 2.42188 53.6953C1.44792 52.6641 0.960938 51.2344 0.960938 49.4062C0.960938 47.5781 1.44531 46.1484 2.41406 45.1172C3.38802 44.0807 4.63542 43.5625 6.15625 43.5625C7.46875 43.5625 8.53385 43.8464 9.35156 44.4141C10.1693 44.9766 10.6797 45.7734 10.8828 46.8047C10.9036 46.9349 10.849 47 10.7188 47H9.71094C9.61719 47 9.55469 46.9479 9.52344 46.8438C9.07552 45.4062 7.95312 44.6849 6.15625 44.6797C5.07812 44.6797 4.18229 45.0781 3.46875 45.875C2.75521 46.6667 2.39844 47.8411 2.39844 49.3984C2.39844 50.9557 2.75781 52.1328 3.47656 52.9297C4.20052 53.7214 5.1224 54.1172 6.24219 54.1172C8.03385 54.1172 9.15365 53.3984 9.60156 51.9609C9.63281 51.8568 9.69531 51.8021 9.78906 51.7969H10.7969C10.9062 51.7969 10.9609 51.8438 10.9609 51.9375C10.9609 52.401 10.8073 52.8542 10.5 53.2969C9.60938 54.5938 8.1901 55.2422 6.24219 55.2422ZM15.4753 53.6875C14.5066 52.651 14.0222 51.2214 14.0222 49.3984C14.0222 47.5755 14.5066 46.1484 15.4753 45.1172C16.4493 44.0807 17.6967 43.5625 19.2175 43.5625C20.7435 43.5625 21.9909 44.0807 22.9597 45.1172C23.9336 46.1484 24.4206 47.5755 24.4206 49.3984C24.4206 51.2214 23.9336 52.651 22.9597 53.6875C21.9909 54.724 20.7435 55.2422 19.2175 55.2422C17.6967 55.2422 16.4493 54.724 15.4753 53.6875ZM21.905 45.875C21.1915 45.0781 20.2956 44.6797 19.2175 44.6797C18.1446 44.6797 17.2487 45.0781 16.53 45.875C15.8165 46.6667 15.4597 47.8411 15.4597 49.3984C15.4597 50.9557 15.8165 52.1328 16.53 52.9297C17.2487 53.7214 18.1446 54.1172 19.2175 54.1172C20.2956 54.1172 21.1915 53.7214 21.905 52.9297C22.6237 52.1328 22.9831 50.9557 22.9831 49.3984C22.9831 47.8411 22.6237 46.6667 21.905 45.875ZM28.2709 54.8438V43.9609C28.2709 43.8516 28.323 43.7969 28.4272 43.7969H29.5522C29.6564 43.7969 29.7084 43.8516 29.7084 43.9609V53.8828H36.0131C36.1225 53.8828 36.1772 53.9349 36.1772 54.0391V54.8438C36.1772 54.9479 36.1225 55 36.0131 55H28.4272C28.323 55 28.2709 54.9479 28.2709 54.8438ZM39.7228 53.6875C38.7541 52.651 38.2697 51.2214 38.2697 49.3984C38.2697 47.5755 38.7541 46.1484 39.7228 45.1172C40.6968 44.0807 41.9442 43.5625 43.465 43.5625C44.991 43.5625 46.2384 44.0807 47.2072 45.1172C48.1811 46.1484 48.6681 47.5755 48.6681 49.3984C48.6681 51.2214 48.1811 52.651 47.2072 53.6875C46.2384 54.724 44.991 55.2422 43.465 55.2422C41.9442 55.2422 40.6968 54.724 39.7228 53.6875ZM46.1525 45.875C45.439 45.0781 44.5431 44.6797 43.465 44.6797C42.3921 44.6797 41.4963 45.0781 40.7775 45.875C40.064 46.6667 39.7072 47.8411 39.7072 49.3984C39.7072 50.9557 40.064 52.1328 40.7775 52.9297C41.4963 53.7214 42.3921 54.1172 43.465 54.1172C44.5431 54.1172 45.439 53.7214 46.1525 52.9297C46.8713 52.1328 47.2306 50.9557 47.2306 49.3984C47.2306 47.8411 46.8713 46.6667 46.1525 45.875ZM52.5184 54.8438V43.9609C52.5184 43.8568 52.5705 43.8021 52.6747 43.7969H57.1591C58.4716 43.7969 59.4924 44.099 60.2216 44.7031C60.9507 45.3073 61.3153 46.1536 61.3153 47.2422C61.3153 48.0234 61.0341 48.6979 60.4716 49.2656C59.9143 49.8333 59.1304 50.1979 58.12 50.3594C58.4169 50.4323 58.6851 50.5625 58.9247 50.75C59.1643 50.9375 59.3361 51.1016 59.4403 51.2422C59.5497 51.3776 59.6955 51.5911 59.8778 51.8828L61.7997 54.8047C61.8257 54.8464 61.8387 54.8906 61.8387 54.9375C61.8387 54.9792 61.7815 55 61.6669 55H60.3544C60.271 55 60.1929 54.9479 60.12 54.8438L58.1981 51.8828C57.6877 51.0807 56.9403 50.6797 55.9559 50.6797H53.9559V54.8438C53.9559 54.9479 53.9039 55 53.7997 55H52.6747C52.5705 55 52.5184 54.9479 52.5184 54.8438ZM53.9559 49.5625H57.1591C57.982 49.5625 58.6408 49.362 59.1356 48.9609C59.6304 48.5599 59.8778 47.987 59.8778 47.2422C59.8778 46.4922 59.6278 45.9193 59.1278 45.5234C58.633 45.1224 57.9768 44.9219 57.1591 44.9219H53.9559V49.5625ZM64.4156 52.1016C64.4156 52.0078 64.4703 51.9609 64.5797 51.9609H65.5875C65.6813 51.9609 65.7464 52.013 65.7828 52.1172C66.2307 53.4505 67.3714 54.1172 69.2047 54.1172C70.163 54.1172 70.8948 53.9479 71.4 53.6094C71.9104 53.2656 72.1656 52.8411 72.1656 52.3359C72.1656 51.8307 72.0042 51.4245 71.6813 51.1172C71.3635 50.8047 70.8635 50.5521 70.1813 50.3594L67.3766 49.5625C65.5641 49.0417 64.6578 48.0547 64.6578 46.6016C64.6578 45.7057 65.038 44.9766 65.7984 44.4141C66.5641 43.8464 67.5875 43.5625 68.8688 43.5625C70.15 43.5625 71.1839 43.8385 71.9703 44.3906C72.762 44.9375 73.2594 45.6901 73.4625 46.6484C73.4833 46.7786 73.4286 46.8438 73.2984 46.8438H72.2906C72.1969 46.8438 72.1318 46.7891 72.0953 46.6797C71.6474 45.3464 70.5823 44.6797 68.9 44.6797C68.0146 44.6797 67.3245 44.8516 66.8297 45.1953C66.3401 45.5339 66.0953 45.9609 66.0953 46.4766C66.0953 46.987 66.2542 47.3906 66.5719 47.6875C66.8948 47.9844 67.4026 48.2344 68.0953 48.4375L70.9 49.2422C72.7021 49.7526 73.6031 50.7396 73.6031 52.2031C73.6031 53.1094 73.2099 53.8438 72.4234 54.4062C71.6422 54.9635 70.5693 55.2422 69.2047 55.2422C67.8401 55.2422 66.7516 54.9688 65.9391 54.4219C65.5328 54.151 65.176 53.8073 64.8688 53.3906C64.5667 52.9688 64.4156 52.5391 64.4156 52.1016ZM77.2816 54.8438V43.9609C77.2816 43.8516 77.3336 43.7969 77.4378 43.7969H78.5628C78.8805 43.7969 79.1461 43.9583 79.3597 44.2812L85.2816 53.0781V43.9609C85.2816 43.8516 85.3336 43.7969 85.4378 43.7969H86.5628C86.667 43.7969 86.7191 43.8516 86.7191 43.9609V54.8438C86.7191 54.9479 86.667 55 86.5628 55H85.4378C85.1201 55 84.8545 54.8411 84.6409 54.5234L78.7191 45.7188V54.8438C78.7191 54.9479 78.667 55 78.5628 55H77.4378C77.3336 55 77.2816 54.9479 77.2816 54.8438ZM90.0928 54.8438L94.335 44.2812C94.4652 43.9635 94.7048 43.8021 95.0537 43.7969H95.5381C95.8923 43.7969 96.1319 43.9583 96.2569 44.2812L100.499 54.8438C100.515 54.875 100.522 54.8984 100.522 54.9141C100.522 54.9714 100.47 55 100.366 55H99.2178C99.1136 55 99.0329 54.9479 98.9756 54.8438L97.8584 52.1172H92.7334L91.6162 54.8438C91.5642 54.9479 91.4834 55 91.3741 55H90.2256C90.1267 55 90.0772 54.9714 90.0772 54.9141C90.072 54.8984 90.0772 54.875 90.0928 54.8438ZM93.1397 51H97.46L95.2959 45.6406L93.1397 51ZM103.873 54.8438V43.9609C103.873 43.8516 103.925 43.7969 104.029 43.7969H105.154C105.258 43.7969 105.31 43.8516 105.31 43.9609V54.8438C105.31 54.9479 105.258 55 105.154 55H104.029C103.925 55 103.873 54.9479 103.873 54.8438ZM109.793 54.8438V43.9609C109.793 43.8516 109.846 43.7969 109.95 43.7969H111.075C111.179 43.7969 111.231 43.8516 111.231 43.9609V53.8828H117.536C117.645 53.8828 117.7 53.9349 117.7 54.0391V54.8438C117.7 54.9479 117.645 55 117.536 55H109.95C109.846 55 109.793 54.9479 109.793 54.8438Z" fill="#3A3845"/>
<circle cx="28" cy="3" r="3" fill="#3A3845"/>
<circle cx="86" cy="3" r="3" fill="#3A3845"/>
</svg>
